<?xml version="1.0" standalone="no"?>
<!DOCTYPE svg PUBLIC "-//W3C//DTD SVG 20010904//EN"
 "http://www.w3.org/TR/2001/REC-SVG-20010904/DTD/svg10.dtd">
<svg version="1.0" xmlns="http://www.w3.org/2000/svg"
 width="512.000000pt" height="512.000000pt" viewBox="0 0 512.000000 512.000000"
 preserveAspectRatio="xMidYMid meet">
<metadata>
Created by potrace 1.14, written by Peter Selinger 2001-2017
</metadata>
<g transform="translate(0.000000,512.000000) scale(0.100000,-0.100000)"
fill="#000000" stroke="none">
<path d="M0 2560 l0 -2560 2560 0 2560 0 0 2560 0 2560 -2560 0 -2560 0 0
-2560z m1850 730 c0 -440 3 -800 8 -799 4 0 95 111 202 247 107 136 401 496
653 800 l459 552 220 0 c173 0 218 -3 212 -12 -5 -7 -244 -296 -533 -642 -288
-347 -524 -635 -524 -640 0 -6 248 -408 551 -893 l550 -883 -216 0 -217 1
-450 731 c-247 402 -457 740 -465 750 -14 18 -28 4 -233 -238 l-217 -258 0
-493 0 -493 -185 0 -185 0 0 1535 0 1535 185 0 185 0 0 -800z"/>
</g>
</svg>
